<?xml version="1.0" encoding="UTF-8"?>
<svg width="46px" height="46px" viewBox="0 0 46 46" version="1.1" xmlns="http://www.w3.org/2000/svg" xmlns:xlink="http://www.w3.org/1999/xlink">
    <!-- Generator: Sketch 46.2 (44496) - http://www.bohemiancoding.com/sketch -->
    <title></title>
    <desc>Created with Sketch.</desc>
    <defs></defs>
    <g id="Page-2" stroke="none" stroke-width="1" fill="none" fill-rule="evenodd">
        <g id="stethoscope" transform="translate(-1.000000, -1.000000)" fill="#5A4EBC">
            <path d="M39.8125,15.375 C40.8007862,15.375 41.7291623,15.5659161 42.5976562,15.9477539 C43.4661502,16.3295918 44.226071,16.8461881 44.8774414,17.4975586 C45.5288119,18.148929 46.0454082,18.9088498 46.4272461,19.7773438 C46.8090839,20.6458377 47,21.5742138 47,22.5625 C47,23.4160199 46.8577488,24.2320925 46.5732422,25.0107422 C46.2887356,25.7893919 45.8919296,26.4894175 45.3828125,27.1108398 C44.8736954,27.7322622 44.2672561,28.260089 43.5634766,28.6943359 C42.859697,29.1285829 42.0885459,29.435546 41.25,29.6152344 L41.25,31.90625 C41.25,33.238939 41.0852881,34.5379169 40.7558594,35.8032227 C40.4264306,37.0685285 39.9584991,38.2626897 39.3520508,39.3857422 C38.7456024,40.5087947 38.0118858,41.5345006 37.1508789,42.4628906 C36.289872,43.3912807 35.3240613,44.1923794 34.253418,44.8662109 C33.1827746,45.5400424 32.0260479,46.0641257 30.7832031,46.4384766 C29.5403584,46.8128274 28.237637,47 26.875,47 C25.512363,47 24.2096416,46.8128274 22.9667969,46.4384766 C21.7239521,46.0641257 20.5672254,45.5400424 19.496582,44.8662109 C18.4259387,44.1923794 17.460128,43.3912807 16.5991211,42.4628906 C15.7381142,41.5345006 15.0043976,40.5087947 14.3979492,39.3857422 C13.7915009,38.2626897 13.3235694,37.0685285 12.9941406,35.8032227 C12.6647119,34.5379169 12.5,33.238939 12.5,31.90625 L12.5,26.7626953 C10.6581939,26.5979809 9.02230533,26.1562536 7.59228516,25.4375 C6.16226499,24.7187464 4.96061685,23.7753965 3.98730469,22.6074219 C3.01399253,21.4394473 2.272789,20.0843176 1.76367188,18.5419922 C1.25455475,16.9996668 1,15.3300871 1,13.5332031 L1,1 L8.1875,1 C8.57682486,1 8.91373556,1.14225118 9.19824219,1.42675781 C9.48274882,1.71126444 9.625,2.04817514 9.625,2.4375 C9.625,2.82682486 9.48274882,3.16373556 9.19824219,3.44824219 C8.91373556,3.73274882 8.57682486,3.875 8.1875,3.875 L3.875,3.875 L3.875,13.5332031 C3.875,15.1204506 4.09586368,16.5579363 4.53759766,17.8457031 C4.97933164,19.13347 5.62694886,20.2340449 6.48046875,21.1474609 C7.33398864,22.060877 8.3858987,22.764646 9.63623047,23.2587891 C10.8865622,23.7529322 12.3203044,24 13.9375,24 C15.4498774,24 16.8274677,23.767906 18.0703125,23.3037109 C19.3131573,22.8395159 20.3725542,22.1731814 21.2485352,21.3046875 C22.1245161,20.4361936 22.8020809,19.3842835 23.28125,18.1489258 C23.7604191,16.913568 24,15.5322342 24,14.0048828 L24,3.875 L19.6875,3.875 C19.2981751,3.875 18.9612644,3.73274882 18.6767578,3.44824219 C18.3922512,3.16373556 18.25,2.82682486 18.25,2.4375 C18.25,2.04817514 18.3922512,1.71126444 18.6767578,1.42675781 C18.9612644,1.14225118 19.2981751,1 19.6875,1 L26.875,1 L26.875,13.5332031 C26.875,15.3300871 26.6204453,16.9996668 26.1113281,18.5419922 C25.602211,20.0843176 24.8610075,21.4394473 23.8876953,22.6074219 C22.9143832,23.7753965 21.712735,24.7187464 20.2827148,25.4375 C18.8526947,26.1562536 17.2168061,26.5979809 15.375,26.7626953 L15.375,31.90625 C15.375,33.5084716 15.6632458,35.0470304 16.2397461,36.5219727 C16.8162464,37.9969149 17.6173451,39.2958928 18.6430664,40.4189453 C19.6687877,41.5419978 20.8816662,42.4404263 22.2817383,43.1142578 C23.6818104,43.7880893 25.2128823,44.125 26.875,44.125 C28.5371177,44.125 30.0681896,43.7880893 31.4682617,43.1142578 C32.8683338,42.4404263 34.0812123,41.5419978 35.1069336,40.4189453 C36.1326549,39.2958928 36.9337536,37.9969149 37.5102539,36.5219727 C38.0867542,35.0470304 38.375,33.5084716 38.375,31.90625 L38.375,29.6152344 C37.5364541,29.435546 36.765303,29.1285829 36.0615234,28.6943359 C35.3577439,28.260089 34.7513046,27.7322622 34.2421875,27.1108398 C33.7330704,26.4894175 33.3362644,25.7893919 33.0517578,25.0107422 C32.7672512,24.2320925 32.625,23.4160199 32.625,22.5625 C32.625,21.5742138 32.8121726,20.6458377 33.1865234,19.7773438 C33.5608743,18.9088498 34.0737272,18.148929 34.7250977,17.4975586 C35.3764681,16.8461881 36.1401323,16.3295918 37.0161133,15.9477539 C37.8920942,15.5659161 38.8242138,15.375 39.8125,15.375 Z M40.5,27 C41.1250031,27 41.7109348,26.8828137 42.2578125,26.6484375 C42.8046902,26.4140613 43.281248,26.093752 43.6875,25.6875 C44.093752,25.281248 44.4140613,24.8046902 44.6484375,24.2578125 C44.8828137,23.7109348 45,23.1250031 45,22.5 C45,21.8749969 44.8828137,21.2890652 44.6484375,20.7421875 C44.4140613,20.1953098 44.093752,19.718752 43.6875,19.3125 C43.281248,18.906248 42.8046902,18.5859387 42.2578125,18.3515625 C41.7109348,18.1171863 41.1250031,18 40.5,18 C39.8749969,18 39.2890652,18.1171863 38.7421875,18.3515625 C38.1953098,18.5859387 37.718752,18.906248 37.3125,19.3125 C36.906248,19.718752 36.5859387,20.1953098 36.3515625,20.7421875 C36.1171863,21.2890652 36,21.8749969 36,22.5 C36,23.1250031 36.1171863,23.7109348 36.3515625,24.2578125 C36.5859387,24.8046902 36.906248,25.281248 37.3125,25.6875 C37.718752,26.093752 38.1953098,26.4140613 38.7421875,26.6484375 C39.2890652,26.8828137 39.8749969,27 40.5,27 Z" id=""></path>
        </g>
    </g>
</svg>